<mxfile host="app.diagrams.net" modified="2023-11-07T18:39:19.059Z" agent="Mozilla/5.0 (Windows NT 10.0; Win64; x64) AppleWebKit/537.36 (KHTML, like Gecko) Chrome/116.0.0.0 Safari/537.36 OPR/102.0.0.0" etag="il-SpM0vFk0b0vqceyqs" version="22.0.8" type="device">
  <diagram name="Страница — 1" id="MQ_Sf9FGrjqhgtXzqlnl">
    <mxGraphModel dx="1393" dy="797" grid="1" gridSize="5" guides="1" tooltips="1" connect="1" arrows="1" fold="1" page="1" pageScale="1" pageWidth="1169" pageHeight="827" math="0" shadow="0">
      <root>
        <mxCell id="0" />
        <mxCell id="1" parent="0" />
        <mxCell id="xvlWCmnCxYvoC9QycbIk-2" value="" style="rounded=0;whiteSpace=wrap;html=1;" parent="1" vertex="1">
          <mxGeometry x="145" y="125" width="155" height="245" as="geometry" />
        </mxCell>
        <mxCell id="xvlWCmnCxYvoC9QycbIk-3" value="&lt;font style=&quot;font-size: 16px;&quot;&gt;Очередь 1&lt;/font&gt;" style="rounded=0;whiteSpace=wrap;html=1;" parent="1" vertex="1">
          <mxGeometry x="145" y="125" width="155" height="60" as="geometry" />
        </mxCell>
        <mxCell id="xvlWCmnCxYvoC9QycbIk-4" value="&lt;font style=&quot;font-size: 16px;&quot;&gt;ИС&lt;br&gt;БД&lt;br&gt;&lt;/font&gt;" style="rounded=0;whiteSpace=wrap;html=1;" parent="1" vertex="1">
          <mxGeometry x="145" y="185" width="155" height="60" as="geometry" />
        </mxCell>
        <mxCell id="xvlWCmnCxYvoC9QycbIk-5" value="&lt;font style=&quot;&quot;&gt;&lt;span style=&quot;font-size: 16px;&quot;&gt;ПП&lt;/span&gt;&lt;br&gt;&lt;font style=&quot;font-size: 16px;&quot;&gt;П0, ПП1, ПП5&lt;/font&gt;&lt;br&gt;&lt;/font&gt;" style="rounded=0;whiteSpace=wrap;html=1;" parent="1" vertex="1">
          <mxGeometry x="145" y="245" width="155" height="60" as="geometry" />
        </mxCell>
        <mxCell id="xvlWCmnCxYvoC9QycbIk-6" value="&lt;font style=&quot;font-size: 16px;&quot;&gt;&lt;span style=&quot;font-size: 16px;&quot;&gt;ТС&lt;br&gt;&lt;/span&gt;&lt;span style=&quot;background-color: initial;&quot;&gt;РС27 (СС1),&amp;nbsp;&lt;br&gt;&lt;/span&gt;&lt;span style=&quot;line-height: 106%; font-family: &amp;quot;Arial Narrow&amp;quot;, sans-serif;&quot;&gt;РС1-11, РС23-25&lt;/span&gt;&lt;br&gt;&lt;/font&gt;" style="rounded=0;whiteSpace=wrap;html=1;" parent="1" vertex="1">
          <mxGeometry x="145" y="305" width="155" height="65" as="geometry" />
        </mxCell>
        <mxCell id="xvlWCmnCxYvoC9QycbIk-19" value="" style="rounded=0;whiteSpace=wrap;html=1;" parent="1" vertex="1">
          <mxGeometry x="360" y="125" width="155" height="245" as="geometry" />
        </mxCell>
        <mxCell id="xvlWCmnCxYvoC9QycbIk-20" value="&lt;font style=&quot;font-size: 16px;&quot;&gt;Очередь 2&lt;/font&gt;" style="rounded=0;whiteSpace=wrap;html=1;" parent="1" vertex="1">
          <mxGeometry x="360" y="125" width="155" height="60" as="geometry" />
        </mxCell>
        <mxCell id="xvlWCmnCxYvoC9QycbIk-21" value="&lt;font style=&quot;font-size: 16px;&quot;&gt;ИС&lt;br&gt;ФТД&lt;br&gt;&lt;/font&gt;" style="rounded=0;whiteSpace=wrap;html=1;" parent="1" vertex="1">
          <mxGeometry x="360" y="185" width="155" height="60" as="geometry" />
        </mxCell>
        <mxCell id="xvlWCmnCxYvoC9QycbIk-22" value="&lt;font style=&quot;&quot;&gt;&lt;span style=&quot;font-size: 16px;&quot;&gt;ПП&lt;/span&gt;&lt;br&gt;&lt;font style=&quot;font-size: 16px;&quot;&gt;ПП3&lt;/font&gt;&lt;br&gt;&lt;/font&gt;" style="rounded=0;whiteSpace=wrap;html=1;" parent="1" vertex="1">
          <mxGeometry x="360" y="245" width="155" height="60" as="geometry" />
        </mxCell>
        <mxCell id="xvlWCmnCxYvoC9QycbIk-23" value="&lt;font style=&quot;&quot;&gt;&lt;span style=&quot;font-size: 16px;&quot;&gt;ТС&lt;/span&gt;&lt;br&gt;&lt;font style=&quot;font-size: 16px;&quot;&gt;РС16-18, РС12-15&lt;/font&gt;&lt;br&gt;&lt;/font&gt;" style="rounded=0;whiteSpace=wrap;html=1;" parent="1" vertex="1">
          <mxGeometry x="360" y="305" width="155" height="65" as="geometry" />
        </mxCell>
        <mxCell id="xvlWCmnCxYvoC9QycbIk-24" value="" style="endArrow=classic;html=1;rounded=0;exitX=1;exitY=1;exitDx=0;exitDy=0;entryX=0;entryY=1;entryDx=0;entryDy=0;" parent="1" source="xvlWCmnCxYvoC9QycbIk-4" target="xvlWCmnCxYvoC9QycbIk-21" edge="1">
          <mxGeometry width="50" height="50" relative="1" as="geometry">
            <mxPoint x="360" y="265" as="sourcePoint" />
            <mxPoint x="410" y="215" as="targetPoint" />
          </mxGeometry>
        </mxCell>
        <mxCell id="xvlWCmnCxYvoC9QycbIk-25" value="" style="rounded=0;whiteSpace=wrap;html=1;" parent="1" vertex="1">
          <mxGeometry x="580" y="125" width="155" height="245" as="geometry" />
        </mxCell>
        <mxCell id="xvlWCmnCxYvoC9QycbIk-26" value="&lt;font style=&quot;font-size: 16px;&quot;&gt;Очередь 3&lt;/font&gt;" style="rounded=0;whiteSpace=wrap;html=1;" parent="1" vertex="1">
          <mxGeometry x="580" y="125" width="155" height="60" as="geometry" />
        </mxCell>
        <mxCell id="xvlWCmnCxYvoC9QycbIk-27" value="&lt;font style=&quot;font-size: 16px;&quot;&gt;ИС&lt;br&gt;ФАД&lt;br&gt;&lt;/font&gt;" style="rounded=0;whiteSpace=wrap;html=1;" parent="1" vertex="1">
          <mxGeometry x="580" y="185" width="155" height="60" as="geometry" />
        </mxCell>
        <mxCell id="xvlWCmnCxYvoC9QycbIk-28" value="&lt;font style=&quot;&quot;&gt;&lt;span style=&quot;font-size: 16px;&quot;&gt;ПП&lt;/span&gt;&lt;br&gt;&lt;font style=&quot;font-size: 16px;&quot;&gt;ПП2, ПП4&lt;/font&gt;&lt;br&gt;&lt;/font&gt;" style="rounded=0;whiteSpace=wrap;html=1;" parent="1" vertex="1">
          <mxGeometry x="580" y="245" width="155" height="60" as="geometry" />
        </mxCell>
        <mxCell id="xvlWCmnCxYvoC9QycbIk-29" value="&lt;font style=&quot;&quot;&gt;&lt;span style=&quot;font-size: 16px;&quot;&gt;ТС&lt;/span&gt;&lt;br&gt;&lt;font style=&quot;font-size: 16px;&quot;&gt;РС19-22, РС26&lt;/font&gt;&lt;br&gt;&lt;/font&gt;" style="rounded=0;whiteSpace=wrap;html=1;" parent="1" vertex="1">
          <mxGeometry x="580" y="305" width="155" height="65" as="geometry" />
        </mxCell>
        <mxCell id="xvlWCmnCxYvoC9QycbIk-30" value="" style="endArrow=classic;html=1;rounded=0;exitX=1;exitY=1;exitDx=0;exitDy=0;entryX=0;entryY=0;entryDx=0;entryDy=0;" parent="1" source="xvlWCmnCxYvoC9QycbIk-21" target="xvlWCmnCxYvoC9QycbIk-28" edge="1">
          <mxGeometry width="50" height="50" relative="1" as="geometry">
            <mxPoint x="360" y="265" as="sourcePoint" />
            <mxPoint x="410" y="215" as="targetPoint" />
          </mxGeometry>
        </mxCell>
      </root>
    </mxGraphModel>
  </diagram>
</mxfile>
